<svg width="10" height="13" viewBox="0 0 10 13" fill="none" xmlns="http://www.w3.org/2000/svg">
<path d="M5.2552 12.5299L1.76424 8.4128C1.71573 8.35098 1.66773 8.28876 1.62023 8.22617C1.02391 7.44065 0.701768 6.48119 0.703214 5.49498C0.703214 4.28771 1.1828 3.1299 2.03646 2.27624C2.89012 1.42258 4.04794 0.942993 5.2552 0.942993C6.46246 0.942993 7.62027 1.42258 8.47394 2.27624C9.3276 3.1299 9.80718 4.28771 9.80718 5.49498C9.80863 6.48075 9.48662 7.43977 8.89058 8.22492L8.89016 8.22617C8.89016 8.22617 8.76602 8.38921 8.74739 8.41114L5.2552 12.5299ZM2.28068 7.72752C2.28151 7.72752 2.37752 7.85497 2.39945 7.88228L5.2552 11.2503L8.11467 7.87773C8.13288 7.85497 8.22971 7.72669 8.23012 7.72627C8.71725 7.08449 8.9805 6.30069 8.97955 5.49498C8.97955 4.50722 8.58716 3.55991 7.88871 2.86146C7.19026 2.16301 6.24296 1.77063 5.2552 1.77063C4.26744 1.77063 3.32013 2.16301 2.62168 2.86146C1.92323 3.55991 1.53085 4.50722 1.53085 5.49498C1.52998 6.30119 1.79353 7.08544 2.2811 7.72752H2.28068Z" fill="#223345"/>
</svg>
